<svg xmlns="http://www.w3.org/2000/svg" xmlns:svg="http://www.w3.org/2000/svg" id="svg6584" width="1000" height="1000" version="1.1"><metadata id="metadata6589"/><g id="layer1" transform="scale(10) translate(0,-952.362)"><path id="path8522" d="m 35.416666,966.94533 -12.5,8.33333 0,41.66674 c 0,2.0833 2.083333,4.1666 4.166668,4.1666 l 45.833332,0 c 2.083334,0 4.166668,-2.0833 4.166668,-4.1666 l 0,-41.66674 -12.5,-8.33333 z m 4.166668,8.33333 20.833332,0 8.333334,4.16666 0,8.33333 -37.5,0 0,-8.33333 z m -4.166668,29.16664 c 2.308333,0 4.166668,1.8584 4.166668,4.1667 0,2.3083 -1.858334,4.1666 -4.166668,4.1666 -2.308333,0 -4.166667,-1.8583 -4.166667,-4.1666 0,-2.3083 1.858334,-4.1667 4.166667,-4.1667 z m 29.166668,0 c 2.308333,0 4.166666,1.8584 4.166666,4.1667 0,2.3083 -1.858333,4.1666 -4.166666,4.1666 -2.308334,0 -4.166668,-1.8583 -4.166668,-4.1666 0,-2.3083 1.858334,-4.1667 4.166668,-4.1667 z m -14.583333,20.8334 -22.916667,12.5 45.833332,0 z" style="color:#000;fill:#000;fill-opacity:1;fill-rule:nonzero;stroke:none;stroke-width:2;marker:none;visibility:visible;display:inline;overflow:visible;enable-background:accumulate"/></g></svg>