<svg xmlns="http://www.w3.org/2000/svg" xmlns:svg="http://www.w3.org/2000/svg" id="svg6584" width="1000" height="1000" version="1.1"><metadata id="metadata6589"/><g id="layer1" transform="scale(10) translate(0,-952.362)"><path id="path6154" d="m 29.166666,971.11206 c -1.154166,0 -2.083333,0.92917 -2.083333,2.08333 0,1.15417 0.929167,2.08333 2.083333,2.08333 l 16.666667,0 -2.083333,12.49999 0,4.16667 -29.166667,8.33332 0,8.3333 29.166667,0 0,16.6666 -10.416667,4.1667 0,4.1666 33.333334,0 0,-4.1666 -10.416667,-4.1667 0,-8.2029 0,-8.4637 29.166667,0 0,-8.3333 -29.166667,-8.33332 0,-4.16667 -2.083333,-12.49999 16.666666,0 c 1.154167,0 2.083334,-0.92916 2.083334,-2.08333 0,-1.15416 -0.929167,-2.08333 -2.083334,-2.08333 z" style="fill:#000;fill-opacity:1;stroke:none;display:inline"/></g></svg>