<svg xmlns="http://www.w3.org/2000/svg" xmlns:svg="http://www.w3.org/2000/svg" id="svg6584" width="1000" height="1000" version="1.1"><metadata id="metadata6589"/><path style="color:#000;fill:#000;fill-opacity:1;stroke:none;stroke-width:.9999997;marker:none;visibility:visible;display:inline;overflow:visible;enable-background:accumulate" id="path2995" d="M 437.5 187.5 C 229.16666 187.5 104.15625 354.1668 104.15625 437.5 C 104.15625 520.8327 145.82292 583.34375 229.15625 583.34375 C 312.48959 583.34375 354.15625 604.15625 354.15625 666.65625 C 354.15625 749.98925 416.66666 812.5 500 812.5 C 770.83334 812.5 895.84375 666.67675 895.84375 520.84375 C 895.84375 270.84465 687.5 187.5 437.5 187.5 z M 385.40625 270.84375 C 414.17043 270.84375 437.5 294.14215 437.5 322.90625 C 437.5 351.67035 414.17043 375 385.40625 375 C 356.64209 375 333.34375 351.67035 333.34375 322.90625 C 333.34375 294.14215 356.64209 270.84375 385.40625 270.84375 z M 552.09375 270.84375 C 580.85749 270.84375 604.15625 294.14255 604.15625 322.90625 C 604.15625 351.66995 580.85749 375 552.09375 375 C 523.32999 375 500 351.66995 500 322.90625 C 500 294.14255 523.33 270.84375 552.09375 270.84375 z M 718.75 354.15625 C 747.51418 354.15625 770.84375 377.4859 770.84375 406.25 C 770.84375 435.0141 747.51418 458.34375 718.75 458.34375 C 689.98583 458.34375 666.65625 435.0141 666.65625 406.25 C 666.65625 377.4859 689.98584 354.15625 718.75 354.15625 z M 239.59375 395.84375 C 268.35791 395.84375 291.65625 419.14215 291.65625 447.90625 C 291.65625 476.67035 268.35791 500 239.59375 500 C 210.82958 500 187.5 476.67035 187.5 447.90625 C 187.5 419.14215 210.82958 395.84375 239.59375 395.84375 z M 500 604.15625 C 534.51791 604.15625 562.5 632.13825 562.5 666.65625 C 562.5 701.17425 534.51791 729.15625 500 729.15625 C 465.48208 729.15625 437.5 701.17425 437.5 666.65625 C 437.5 632.13825 465.48208 604.15625 500 604.15625 z"/></svg>