<svg xmlns="http://www.w3.org/2000/svg" xmlns:svg="http://www.w3.org/2000/svg" id="svg6584" width="1000" height="1000" version="1.1"><metadata id="metadata6589"/><g id="layer1" transform="scale(10) translate(0,-952.362)"><path id="path20806" d="m 22.916665,966.94534 c -5.21812,0 -8.33333,3.13916 -8.33333,8.33333 0,4.16666 8.33333,10.41665 12.5,14.58329 8.33312,8.3334 22.09112,15.84134 35.41667,29.16674 l 12.5,12.5 -2.08334,2.0833 c 0,2.0833 2.08334,4.1667 4.16667,4.1667 l 4.16667,-4.1667 4.16666,-4.1667 c 0,-2.0833 -2.08333,-4.1666 -4.16666,-4.1666 l -2.08334,2.0833 -12.5,-12.5 c -11.93062,-11.9304 -20.83354,-27.08334 -29.16666,-35.41667 -4.16667,-4.16666 -10.41667,-12.49999 -14.58334,-12.49999 z m 14.58334,41.66666 c -3.4518,0 -6.25,2.7983 -6.25,6.25 0,3.4517 2.7982,6.25 6.25,6.25 3.45179,0 6.25,-2.7983 6.25,-6.25 0,-3.4517 -2.79821,-6.25 -6.25,-6.25 z" style="color:#000;fill:#000;fill-opacity:1;fill-rule:nonzero;stroke:none;stroke-width:2;marker:none;visibility:visible;display:inline;overflow:visible;enable-background:accumulate"/></g></svg>