<svg xmlns="http://www.w3.org/2000/svg" xmlns:svg="http://www.w3.org/2000/svg" id="svg6584" width="1000" height="1000" version="1.1"><metadata id="metadata6589"/><g id="layer1" transform="scale(10) translate(0,-952.362)"><path id="path8522-6-8" d="m 35.416665,966.94534 0,4.16666 -8.333333,0 c -2.083334,0 -4.166667,2.08333 -4.166667,4.16667 l 0,25.00003 0,20.8333 0,4.1667 0,4.1666 4.166667,0 0,8.3334 8.333333,0 0,-8.3334 29.166667,0 0,8.3334 8.333333,0 0,-8.3334 4.16667,0 0,-4.1666 0,-4.1667 0,-20.8333 0,-25.00003 c 0,-2.08334 -2.08334,-4.16667 -4.16667,-4.16667 l -8.333333,0 0,-4.16666 z m -4.166667,12.49999 37.500001,0 0,12.49999 0,8.33338 -37.500001,0 0,-8.33338 z m 4.166667,33.33337 c 2.308333,0 4.166667,1.8583 4.166667,4.1667 0,2.3083 -1.858334,4.1666 -4.166667,4.1666 -2.308333,0 -4.166667,-1.8583 -4.166667,-4.1666 0,-2.3084 1.858334,-4.1667 4.166667,-4.1667 z m 29.166667,0 c 2.308333,0 4.166667,1.8583 4.166667,4.1667 0,2.3083 -1.858334,4.1666 -4.166667,4.1666 -2.308333,0 -4.166667,-1.8583 -4.166667,-4.1666 0,-2.3084 1.858334,-4.1667 4.166667,-4.1667 z" style="color:#000;fill:#000;fill-opacity:1;fill-rule:nonzero;stroke:none;stroke-width:2;marker:none;visibility:visible;display:inline;overflow:visible;enable-background:accumulate"/></g></svg>