<svg xmlns="http://www.w3.org/2000/svg" xmlns:svg="http://www.w3.org/2000/svg" id="svg6584" width="1000" height="1000" version="1.1"><metadata id="metadata6589"/><g id="layer1" transform="scale(10) translate(0,-952.362)"><path id="rect10401" d="m 14.583332,977.36199 c -2.308334,0 -4.166667,1.85833 -4.166667,4.16666 l 0,41.66665 c 0,2.3083 1.858333,4.1667 4.166667,4.1667 l 70.833333,0 c 2.30833,0 4.16667,-1.8584 4.16667,-4.1667 l 0,-41.66665 c 0,-2.30833 -1.85834,-4.16666 -4.16667,-4.16666 z m -2.083334,8.33333 74.999997,0 0,8.33332 -74.999997,0 z m 2.083334,24.99998 12.5,0 0,8.3333 -12.5,0 z m 37.500003,4.1666 29.16666,0 0,4.1667 -29.16666,0 z" style="color:#000;fill:#000;fill-opacity:1;fill-rule:nonzero;stroke:none;stroke-width:2;marker:none;visibility:visible;display:inline;overflow:visible;enable-background:accumulate"/></g></svg>