<svg xmlns="http://www.w3.org/2000/svg" xmlns:svg="http://www.w3.org/2000/svg" id="svg6584" width="1000" height="1000" version="1.1"><metadata id="metadata6589"/><path style="color:#000;fill:#000;fill-opacity:1;fill-rule:nonzero;stroke:none;stroke-width:2;marker:none;visibility:visible;display:inline;overflow:visible;enable-background:accumulate" id="path2989" d="M 395.84375 83.34375 C 372.76042 83.34375 354.15625 101.9167 354.15625 125 L 270.84375 125 C 247.76042 125 229.15625 143.57285 229.15625 166.65625 L 229.15625 419.28125 L 145.84375 458.34375 L 229.15625 625 L 229.15625 708.34375 L 361.96875 747.40625 C 366.52375 748.90625 370.61125 749.96875 375 749.96875 C 379.38875 749.96875 384.19959 748.57225 388.03125 747.40625 L 500 708.34375 L 611.96875 747.40625 C 616.26541 748.82225 620.61125 749.96875 625 749.96875 C 629.38875 749.96875 633.94125 748.65625 638.03125 747.40625 L 770.84375 708.34375 L 770.84375 625 L 854.15625 458.34375 L 770.84375 419.28125 L 770.84375 166.65625 C 770.84375 143.57285 752.23958 125 729.15625 125 L 645.84375 125 C 645.84375 101.9167 627.23958 83.34375 604.15625 83.34375 L 395.84375 83.34375 z M 312.5 208.34375 L 687.5 208.34375 L 687.5 380.21875 L 541.65625 312.5 L 500 291.65625 L 458.34375 312.5 L 312.5 380.21875 L 312.5 208.34375 z M 229.15625 791.65625 C 224.71917 791.65625 219.0825 793.083 216.15625 794.25 L 145.84375 817.6875 L 145.84375 902.3125 L 229.15625 874.96875 L 361.96875 914.09375 C 366.52375 915.59375 370.61125 916.65625 375 916.65625 C 379.38875 916.65625 384.19959 915.30275 388.03125 914.09375 L 500 874.96875 L 611.96875 914.09375 C 616.26541 915.51075 620.61125 916.65625 625 916.65625 C 629.38875 916.65625 633.94125 915.38575 638.03125 914.09375 L 770.84375 874.96875 L 854.15625 902.3125 L 854.15625 817.6875 L 783.84375 794.25 C 779.70208 792.875 775.24084 791.65625 770.84375 791.65625 C 766.44667 791.65625 762.0575 792.875 757.8125 794.25 L 625 833.3125 L 513.03125 794.25 C 508.63459 792.791 504.39708 791.65625 500 791.65625 C 495.60292 791.65625 490.95833 793 486.96875 794.25 L 375 833.3125 L 242.1875 794.25 C 236.80541 792.208 233.59334 791.65625 229.15625 791.65625 z"/></svg>