<svg xmlns="http://www.w3.org/2000/svg" xmlns:svg="http://www.w3.org/2000/svg" id="svg6584" width="1000" height="1000" version="1.1"><metadata id="metadata6589"/><g id="layer1" transform="scale(10) translate(0,-952.362)"><path id="path14961" d="m 50,975.27868 c -27.083334,0 -39.583334,27.08332 -39.583334,27.08332 0,0 12.5,27.0833 39.583334,27.0833 27.083334,0 39.583334,-27.0833 39.583334,-27.0833 0,0 -12.5,-27.08332 -39.583334,-27.08332 z m -12.5,20.83334 c 1.154166,0 2.083334,0.9291 2.083334,2.0833 l 0,2.08328 8.333332,0 0,-2.08328 c 0,-1.1542 0.929167,-2.0833 2.083334,-2.0833 1.154166,0 2.083334,0.9291 2.083334,2.0833 l 0,2.08328 8.333332,0 0,-2.08328 c 0,-1.1542 0.929168,-2.0833 2.083334,-2.0833 1.154166,0 2.083333,0.9291 2.083333,2.0833 l 0,2.08328 6.25,0 c 1.154167,0 2.083334,0.9292 2.083334,2.0834 0,1.1541 -0.929167,2.0833 -2.083334,2.0833 l -6.25,0 0,2.0833 c 0,1.1542 -0.929167,2.0834 -2.083333,2.0834 -1.154167,0 -2.083334,-0.9292 -2.083334,-2.0834 l 0,-2.0833 -8.333332,0 0,2.0833 c 0,1.1542 -0.929167,2.0834 -2.083334,2.0834 -1.154167,0 -2.083334,-0.9292 -2.083334,-2.0834 l 0,-2.0833 -8.333332,0 0,2.0833 c 0,1.1542 -0.929167,2.0834 -2.083334,2.0834 -1.154167,0 -2.083334,-0.9292 -2.083334,-2.0834 l 0,-2.0833 -6.25,0 c -1.154167,0 -2.083333,-0.9292 -2.083333,-2.0833 0,-1.1542 0.929166,-2.0834 2.083333,-2.0834 l 6.25,0 0,-2.08328 c 0,-1.1542 0.929167,-2.0833 2.083334,-2.0833 z" style="color:#000;fill:#000;fill-opacity:1;fill-rule:nonzero;stroke:none;stroke-width:2;marker:none;visibility:visible;display:inline;overflow:visible;enable-background:accumulate"/></g></svg>