<svg xmlns="http://www.w3.org/2000/svg" xmlns:svg="http://www.w3.org/2000/svg" id="svg6584" width="1000" height="1000" version="1.1"><metadata id="metadata6589"/><g id="layer1" transform="scale(10) translate(0,-952.362)"><path id="rect8206-4" d="m 43.75,971.11206 c -2.308333,0 -4.166667,1.85833 -4.166667,4.16666 l 0,16.66666 -16.666666,0 c -2.308334,0 -4.166667,1.85833 -4.166667,4.16666 l 0,12.49996 c 0,2.3084 1.858333,4.1667 4.166667,4.1667 l 16.666666,0 0,16.6666 c 0,2.3083 1.858334,4.1666 4.166667,4.1666 l 12.5,0 c 2.308334,0 4.166667,-1.8583 4.166667,-4.1666 l 0,-16.6666 16.666667,0 c 2.308333,0 4.166666,-1.8583 4.166666,-4.1667 l 0,-12.49996 c 0,-2.30833 -1.858333,-4.16666 -4.166666,-4.16666 l -16.666667,0 0,-16.66666 c 0,-2.30833 -1.858333,-4.16666 -4.166667,-4.16666 z" style="color:#000;fill:#000;fill-opacity:1;stroke:none;stroke-width:2;marker:none;visibility:visible;display:inline;overflow:visible;enable-background:accumulate"/></g></svg>