<svg xmlns="http://www.w3.org/2000/svg" xmlns:svg="http://www.w3.org/2000/svg" id="svg6584" width="1000" height="1000" version="1.1"><metadata id="metadata6589"/><path style="color:#000;fill:#000;fill-opacity:1;stroke:none;stroke-width:2;marker:none;visibility:visible;display:inline;overflow:visible;enable-background:accumulate" id="path2989" d="M 229.15625 229.15625 C 183.1325 229.15625 145.84375 266.475 145.84375 312.5 C 145.84375 358.5249 183.1325 395.84375 229.15625 395.84375 C 275.18 395.84375 312.5 358.5249 312.5 312.5 C 312.5 266.475 275.18 229.15625 229.15625 229.15625 z M 354.15625 312.5 C 354.15625 381.5374 298.19208 437.5 229.15625 437.5 L 166.65625 437.5 C 156.13166 437.5 145.78959 437.50975 145.84375 458.34375 C 145.85875 464.00975 145.84375 483.988 145.84375 500 C 145.84375 520.834 162.01333 520.84375 166.65625 520.84375 L 854.15625 520.84375 L 854.15625 437.5 C 854.15625 395.834 854.17708 312.5 645.84375 312.5 L 354.15625 312.5 z M 187.5 562.5 C 166.66667 562.5 145.84375 583.32325 145.84375 604.15625 C 145.83375 645.43525 145.84375 693.51025 145.84375 729.15625 C 145.84375 749.98925 166.66667 770.84375 187.5 770.84375 C 208.33333 770.84375 229.15625 749.98925 229.15625 729.15625 L 229.15625 645.84375 L 770.84375 645.84375 L 770.84375 729.15625 C 770.84375 749.98925 791.66666 770.84375 812.5 770.84375 C 833.33333 770.84375 854.15625 749.98925 854.15625 729.15625 L 854.15625 604.15625 C 854.15625 583.32325 833.33333 562.5 812.5 562.5 L 187.5 562.5 z"/></svg>