<svg xmlns="http://www.w3.org/2000/svg" xmlns:svg="http://www.w3.org/2000/svg" id="svg6584" width="1000" height="1000" version="1.1"><metadata id="metadata6589"/><g id="layer1" transform="scale(10) translate(0,-952.362)"><path id="path11719" d="m 49.999999,962.7787 c 0,0 -10.793917,8.35041 -10.416667,12.49999 l 0,45.83331 -8.333333,0 c -2.308375,0 -4.166667,1.8583 -4.166667,4.1666 l 0,8.3334 -4.166666,0 c -2.308292,0 -4.166667,1.8583 -4.166667,4.1666 l 0,4.1667 62.500001,0 0,-4.1667 c 0,-2.3083 -1.858376,-4.1666 -4.166667,-4.1666 l -4.166667,0 0,-8.3334 c 0,-2.3083 -1.858292,-4.1666 -4.166667,-4.1666 l -8.333333,0 0,-45.83331 c 0,-4.16666 -10.416667,-12.49999 -10.416667,-12.49999 z" style="color:#000;fill:#000;fill-opacity:1;stroke:none;stroke-width:3;marker:none;visibility:visible;display:inline;overflow:visible;enable-background:accumulate"/></g></svg>