<svg xmlns="http://www.w3.org/2000/svg" xmlns:svg="http://www.w3.org/2000/svg" id="svg6584" width="1000" height="1000" version="1.1"><metadata id="metadata6589"/><g id="layer1" transform="scale(10) translate(0,-952.362)"><path id="rect7645-6-5-0" d="m 50,964.86202 -27.083334,20.83332 54.166667,0 z m -22.916667,24.99995 c -2.308375,0 -3.840208,1.8817 -4.166667,4.1667 l 0,29.16673 -7.291666,12.5 c -0.618042,1.0596 -1.041667,1.4862 -1.041667,2.0833 0,2.0833 2.631875,2.0833 4.166667,2.0833 l 62.5,0 c 1.479125,0 4.166667,0 4.166667,-2.0833 0,-0.6092 -0.360833,-0.9162 -1.041667,-2.0833 l -7.291667,-12.5 0,-29.16672 c 0,-2.30831 -1.858291,-4.1667 -4.166666,-4.1667 z m 8.333333,8.3334 c 2.083334,0 4.166667,0 6.250001,0 2.083333,0 4.166666,4.16663 4.166666,4.16663 L 50,1012.7787 54.166667,1002.362 c 0.929916,-2.325 2.083333,-4.16663 4.166666,-4.16663 2.083334,0 4.166667,0 6.25,0 2.308334,0 4.166667,1.85833 4.166667,4.16663 l 0,20.8334 c 0,2.0833 -2.083333,4.1666 -4.166667,4.1666 -2.083333,0 -4.166666,-2.0833 -4.166666,-4.1666 l 0,-16.6667 -6.25,12.5 c 0,0 -2.083334,4.1667 -4.166667,4.1667 -2.083333,0 -4.166667,-4.1667 -4.166667,-4.1667 l -6.25,-12.5 0,16.6667 c 0,2.0833 -2.083333,4.1666 -4.166667,4.1666 -2.083333,0 -4.166666,-2.0833 -4.166666,-4.1666 l 0,-4.1667 0,-16.6667 c 0,-2.3083 1.858333,-4.16662 4.166666,-4.16662 z" style="color:#000;fill:#000;fill-opacity:1;fill-rule:nonzero;stroke:none;stroke-width:1;marker:none;visibility:visible;display:inline;overflow:visible;enable-background:accumulate"/></g></svg>