<svg xmlns="http://www.w3.org/2000/svg" xmlns:svg="http://www.w3.org/2000/svg" id="svg6584" width="1000" height="1000" version="1.1"><metadata id="metadata6589"/><g id="layer1" transform="scale(10) translate(0,-952.362)"><path id="rect14245" d="m 50,962.7787 c -12.656542,0 -22.916667,4.66375 -22.916667,10.41666 l 0,12.49999 c 0,5.75291 10.260125,10.41666 22.916667,10.41666 12.656542,0 22.916667,-4.66375 22.916667,-10.41666 l 0,-12.49999 C 72.916667,967.44245 62.656542,962.7787 50,962.7787 z m -22.916667,31.24997 0,37.49993 c 0,5.753 10.260125,10.4167 22.916667,10.4167 12.656542,0 22.916667,-4.6637 22.916667,-10.4167 l 0,-37.49993 c 0,5.75292 -10.260125,10.41663 -22.916667,10.41663 -12.656542,0 -22.916667,-4.66371 -22.916667,-10.41663 z m 12.5,18.75003 c 3.133125,0.7308 6.652917,1.172 10.416667,1.172 3.76375,0 7.283542,-0.4412 10.416667,-1.172 l 0,16.6666 c -3.133125,0.7308 -6.652917,1.1721 -10.416667,1.1721 -3.76375,0 -7.283542,-0.4413 -10.416667,-1.1721 z" style="color:#000;fill:#000;fill-opacity:1;stroke:none;stroke-width:2;marker:none;visibility:visible;display:inline;overflow:visible;enable-background:accumulate"/></g></svg>