<svg xmlns="http://www.w3.org/2000/svg" xmlns:svg="http://www.w3.org/2000/svg" id="svg6584" width="1000" height="1000" version="1.1"><metadata id="metadata6589"/><g id="layer1" transform="scale(10) translate(0,-952.362)"><path id="path10527-1" d="m 47.916665,962.7787 c -4.60237,0 -8.33333,3.73083 -8.33333,8.33333 0,4.60249 3.73096,8.33332 8.33333,8.33332 4.60238,0 8.33333,-3.73083 8.33333,-8.33332 0,-4.6025 -3.73095,-8.33333 -8.33333,-8.33333 z m -23.958333,16.66665 2.083333,8.33333 c 1.04167,4.16666 3.52983,4.16666 6.64063,4.16666 l 6.90104,0 c 2.47396,4.16667 1.31112,10.29916 2.08333,16.66666 l -3.77604,0 c -4.16667,0 -10.80729,4.1667 -6.64063,12.5 l 6.25,12.5 c 4.16667,8.3333 10.41667,2.0833 8.33334,-2.0834 l -6.25,-12.4999 c -1.04167,-2.0834 1.10125,-2.0834 2.08333,-2.0834 l 10.28304,0 c 0,0 4.93225,10.9483 10.74209,18.4521 2.14466,2.77 4.52025,6.5479 7.49375,6.5479 2.08333,0 5.65349,-3.2196 1.85379,-7.7542 -7.11559,-8.4916 -11.62267,-17.2458 -11.62267,-21.4124 0,-4.8467 -0.85142,-15.05295 -2.08333,-20.83336 l 6.25,0 c 2.03333,4.07542 5.20833,10.41666 5.20833,10.41666 2.30308,3.9892 7.29167,3.6879 7.29167,0 0,-0.5062 0,-1.6204 -0.58134,-2.82 l -6.71033,-13.84665 c -0.42825,-0.88375 -1.05592,-2.08333 -4.16667,-2.08333 l -32.29166,0 -3.125,-10.41666 c -1.25,-4.16667 -7.29167,-4.16667 -7.29167,0 0,2.08333 0.738167,4.61291 1.041667,6.24999 z" style="color:#000;fill:#000;fill-opacity:1;fill-rule:nonzero;stroke:none;stroke-width:2;marker:none;visibility:visible;display:inline;overflow:visible;enable-background:accumulate"/></g></svg>