<svg xmlns="http://www.w3.org/2000/svg" xmlns:svg="http://www.w3.org/2000/svg" id="svg6584" width="1000" height="1000" version="1.1"><metadata id="metadata6589"/><path style="color:#000;fill:#000;fill-opacity:1;stroke:none;stroke-width:2;marker:none;visibility:visible;display:inline;overflow:visible;enable-background:accumulate" id="path2991" d="M 395.84375 125 C 375.01042 125 354.15625 145.82305 354.15625 166.65625 L 354.15625 208.34375 L 645.84375 208.34375 L 645.84375 166.65625 C 645.84375 145.82295 624.98959 125 604.15625 125 L 395.84375 125 z M 354.15625 250 L 354.15625 270.84375 C 354.15625 351.38505 419.45916 416.65625 500 416.65625 C 580.54083 416.65625 645.84375 351.38505 645.84375 270.84375 L 645.84375 250 L 354.15625 250 z M 312.5 458.34375 C 250 458.34375 229.15625 562.499 229.15625 625 L 229.15625 875 L 341.15625 875 L 625 458.34375 L 312.5 458.34375 z M 687.5 458.34375 L 403.65625 875 L 770.84375 875 L 770.84375 625 C 770.84375 562.499 750 458.34375 687.5 458.34375 z"/></svg>