<svg xmlns="http://www.w3.org/2000/svg" xmlns:svg="http://www.w3.org/2000/svg" id="svg6584" width="1000" height="1000" version="1.1"><metadata id="metadata6589"/><g id="layer1" transform="scale(10) translate(0,-952.362)"><path id="rect4496" d="m 18.75,973.19535 c -2.308334,0 -4.166667,1.85833 -4.166667,4.16666 l 0,12.49999 0,25 0,12.5 c 0,2.3084 1.858333,4.1667 4.166667,4.1667 2.308333,0 4.166666,-1.8583 4.166666,-4.1667 l 0,-8.3334 12.500001,0 0,8.3334 c 0,2.3084 1.858333,4.1667 4.166666,4.1667 2.308334,0 4.166667,-1.8583 4.166667,-4.1667 l 0,-8.3334 12.5,0 0,8.3334 c 0,2.3084 1.858333,4.1667 4.166667,4.1667 2.308333,0 4.166666,-1.8583 4.166666,-4.1667 l 0,-8.3334 12.500001,0 0,8.3334 c 0,2.3084 1.858333,4.1667 4.166666,4.1667 2.308334,0 4.166667,-1.8583 4.166667,-4.1667 l 0,-49.99999 c 0,-2.30833 -1.858333,-4.16666 -4.166667,-4.16666 -2.308333,0 -4.166666,1.85833 -4.166666,4.16666 l 0,8.33333 -12.500001,0 0,-8.33333 c 0,-2.30833 -1.858333,-4.16666 -4.166666,-4.16666 -2.308334,0 -4.166667,1.85833 -4.166667,4.16666 l 0,8.33333 -12.5,0 0,-8.33333 c 0,-2.30833 -1.858333,-4.16666 -4.166667,-4.16666 -2.308333,0 -4.166666,1.85833 -4.166666,4.16666 l 0,8.33333 -12.500001,0 0,-8.33333 c 0,-2.30833 -1.858333,-4.16666 -4.166666,-4.16666 z m 4.166666,20.83332 12.500001,0 0,16.66663 -12.500001,0 0,-16.66663 z m 20.833334,0 12.5,0 0,16.66663 -12.5,0 0,-16.66663 z m 20.833333,0 12.500001,0 0,16.66663 -12.500001,0 0,-16.66663 z" style="color:#000;fill:#000;fill-opacity:1;stroke:none;stroke-width:1;marker:none;visibility:visible;display:inline;overflow:visible;enable-background:accumulate"/></g></svg>