<svg xmlns="http://www.w3.org/2000/svg" xmlns:svg="http://www.w3.org/2000/svg" id="svg6584" width="1000" height="1000" version="1.1"><metadata id="metadata6589"/><path style="color:#000;fill:#000;fill-opacity:1;fill-rule:nonzero;stroke:none;stroke-width:2;marker:none;visibility:visible;display:inline;overflow:visible;enable-background:accumulate" id="rect7432-3" d="m 50,12.499999 c -3.4625,0 -6.25,2.7875 -6.25,6.25 l 0,14.583334 -14.583333,0 c -3.462918,-4.17e-4 -6.249875,2.7875 -6.25,6.25 -4.58e-4,3.462083 2.787124,6.249583 6.25,6.25 l 14.583333,0 0,35.416667 c -8.76e-4,3.462083 2.787416,6.25 6.25,6.25 3.462041,8.33e-4 6.249583,-2.786667 6.25,-6.25 l 0,-35.416667 14.583333,0 c 3.462875,-4.17e-4 6.250458,-2.787917 6.25,-6.25 -1.25e-4,-3.4625 -2.787083,-6.250417 -6.25,-6.25 l -14.583333,0 0,-14.583334 c 0,-3.4625 -2.7875,-6.25 -6.25,-6.25 z" transform="scale(10)"/></svg>