<svg xmlns="http://www.w3.org/2000/svg" xmlns:svg="http://www.w3.org/2000/svg" id="svg6584" width="1000" height="1000" version="1.1"><metadata id="metadata6589"/><path style="color:#000;fill:#000;fill-opacity:1;fill-rule:nonzero;stroke:none;stroke-width:2;marker:none;visibility:visible;display:inline;overflow:visible;enable-background:accumulate" id="path7552-2" d="M 47.916666,14.583363 C 28.356583,14.583363 12.5,30.440016 12.5,49.999999 c 0,19.559984 15.856583,35.416637 35.416666,35.416637 10.936517,0 20.716879,-4.970412 27.213542,-12.760406 -4.244996,2.763331 -9.27085,4.42708 -14.713542,4.42708 -14.957713,0 -27.083333,-12.125407 -27.083333,-27.08331 0,-14.957904 12.12562,-27.083311 27.083333,-27.083311 5.442692,0 10.468546,1.663749 14.713542,4.42708 C 68.633545,19.553775 58.853183,14.583363 47.916666,14.583363 z M 68.75,31.250015 l -4.166667,12.49999 -14.583334,0 L 62.5,52.083331 56.25,66.666652 68.75,58.333326 81.25,66.666652 75,52.083331 l 12.5,-8.333326 -14.583334,0 -4.166667,-12.49999 z" transform="scale(10)"/></svg>